<svg width="30" height="30" viewBox="0 0 50 50" fill="none" xmlns="http://www.w3.org/2000/svg">
<path d="M44.4922 0.702042C42.3555 1.08571 40.5156 1.43265 40.4024 1.47755C40.293 1.51837 40.1289 1.61633 40.0391 1.6898C39.7266 1.94694 39.7461 1.90612 38.7969 4.44898C38.582 5.02041 37.875 6.91837 37.2227 8.66122L36.0391 11.8367H35.7383C35.5742 11.8367 32.9961 11.902 30.0117 11.9796C27.0313 12.0571 21.7422 12.1959 18.2617 12.2857C0.558601 12.7469 1.19532 12.7265 0.992195 12.8C0.738288 12.8857 0.60157 12.9796 0.402351 13.1918C0.203132 13.4082 0.0390695 13.7633 0.0117258 14.049C7.02217e-06 14.1878 0.117195 15.3429 0.347663 17.3061C0.542976 18.9796 0.929695 22.3306 1.21094 24.7551C2.00391 31.6082 1.9336 31.0653 2.05469 31.3469C2.16016 31.5959 2.45704 31.9347 2.67969 32.0531C2.95313 32.2 2.30469 32.1388 11.9531 32.9388C13.8555 33.098 16.957 33.3551 18.8477 33.5102C20.7383 33.6694 23.5547 33.902 25.1094 34.0327L27.9297 34.2653L30.5078 36.3796C31.9219 37.5429 33.1797 38.6041 33.2969 38.7388C33.5508 39.0245 33.8125 39.5469 33.8711 39.898C33.9844 40.5551 33.7266 41.0857 33.1797 41.3102L32.9492 41.4041L29.2578 41.4367C27.2266 41.4531 20.2852 41.4857 13.8281 41.502L2.08985 41.5347L1.86329 41.6286C1.54688 41.7592 1.21485 42.0898 1.07032 42.4163C0.97657 42.6327 0.960945 42.7224 0.960945 43C0.964851 43.2 0.988288 43.3959 1.03126 43.5061C1.11719 43.7469 1.33985 44.049 1.54688 44.2041C1.88673 44.4571 1.93751 44.4653 3.26954 44.4898L4.49219 44.5102L4.28126 44.6816C3.83594 45.0408 3.44923 45.6531 3.28907 46.2571C3.24219 46.4408 3.22266 46.6571 3.22657 47.0408C3.22657 47.502 3.24219 47.6163 3.33204 47.898C3.71876 49.102 4.70313 49.9061 5.89844 49.9878C6.98438 50.0571 8.07423 49.4204 8.58594 48.4163C9.05469 47.4939 9.02735 46.3673 8.51954 45.4694C8.36329 45.1959 8.03126 44.8122 7.75391 44.5837L7.59766 44.4531H10.9219C12.75 44.449 18.207 44.4367 23.0508 44.4245L31.8555 44.4L31.6797 44.5184C30.8399 45.098 30.3399 46.1347 30.4024 47.1837C30.4805 48.5306 31.4258 49.6612 32.7031 49.9347C33.3359 50.0694 33.8906 49.9918 34.5274 49.6653C34.8828 49.4898 34.9805 49.4122 35.2734 49.1061C35.5469 48.8204 35.6406 48.6857 35.793 48.3673C36.043 47.8449 36.1094 47.551 36.1094 47C36.1094 46.4653 36.043 46.1592 35.8242 45.6939C35.6367 45.298 35.3711 44.9469 35.0586 44.6816C34.7969 44.4653 34.2891 44.1796 34.0781 44.1388C33.8828 44.102 33.8828 44.0612 34.0859 43.9796C34.3516 43.8735 34.7813 43.6163 35.0781 43.3878C35.8242 42.8082 36.5508 41.6775 36.6836 40.8898C36.7422 40.5224 36.7422 39.7878 36.6836 39.4286C36.6094 39.0082 36.4219 38.4163 36.2422 38.0408C35.7383 37 35.2852 36.5306 32.9219 34.5959C31.9375 33.7918 31.1328 33.1143 31.1328 33.0939C31.1328 33.0735 31.4141 32.298 31.7617 31.3755C32.1094 30.449 32.5274 29.3265 32.6953 28.8775C32.8633 28.4286 33.3203 27.2082 33.7109 26.1633C34.1016 25.1184 34.5625 23.8898 34.7344 23.4286C35.1211 22.3878 35.9727 20.1184 37.2656 16.6531C37.4141 16.2612 37.8516 15.0857 38.2422 14.0408C39 12.0122 39.1016 11.7469 40.1953 8.81633C40.9063 6.91428 41.3594 5.70204 41.7266 4.71428C41.8359 4.42041 41.9297 4.17959 41.9336 4.17143C41.9414 4.16327 43.5313 3.87755 45.4688 3.53061C49.3711 2.83673 49.2461 2.86938 49.5859 2.4898C49.8711 2.17143 49.9766 1.88979 49.9766 1.46939C49.9766 1.07755 49.8789 0.791836 49.6563 0.526531C49.3906 0.20816 48.9531 -0.00408173 48.5781 0.00408173C48.4688 0.00408173 46.6289 0.318367 44.4922 0.702042ZM34.8828 14.4163C33.832 17.249 33.0781 19.2653 33.0352 19.3469L32.9844 19.449H31.6992H30.4102V16.8367V14.2245L31.9922 14.1796C32.8633 14.1551 33.8945 14.1347 34.2852 14.1306L34.9922 14.1224L34.8828 14.4163ZM29.4063 16.8449L29.3945 19.449L27.0039 19.4612L24.6094 19.4694V16.9184V14.3673L25.0703 14.3633C25.3203 14.3592 26.293 14.3347 27.2266 14.3102C28.1602 14.2816 29.0352 14.2531 29.1719 14.2531L29.4141 14.2449L29.4063 16.8449ZM23.6055 16.9265L23.5938 19.449H21.2031H18.8086L18.7969 16.9878L18.7891 14.5306L18.9531 14.5265C19.0469 14.5224 19.8867 14.498 20.8203 14.4735C21.7539 14.4449 22.7656 14.4163 23.0664 14.4163L23.6133 14.4082L23.6055 16.9265ZM17.8125 17.0204V19.4694L15.4219 19.4612L13.0274 19.449L13.0156 17.0694C13.0117 15.7633 13.0117 14.6898 13.0156 14.6898C13.043 14.6776 16.4258 14.5837 17.082 14.5796L17.8125 14.5714V17.0204ZM12.0117 17.0816V19.449L9.6211 19.4571L7.22657 19.4694V17.1429V14.8163L7.76563 14.8122C8.0586 14.8082 9.07423 14.7837 10.0195 14.7551C10.9649 14.7265 11.8008 14.7061 11.875 14.7102L12.0117 14.7143V17.0816ZM6.21094 17.1633V19.4694H4.47657C3.34376 19.4694 2.73048 19.4531 2.71485 19.4286C2.67579 19.3633 2.1836 15.0122 2.21094 14.9837C2.23048 14.9633 4.59766 14.8816 5.79298 14.8653L6.21094 14.8571V17.1633ZM6.21094 22.8367V25.1837H4.78516C4.00001 25.1837 3.35938 25.1755 3.35938 25.1673C3.35938 25.1388 2.85548 20.7714 2.83594 20.6204L2.81641 20.4898H4.51563H6.21094V22.8367ZM12.0313 22.8367V25.1837H9.62891H7.22657V22.8367V20.4898H9.62891H12.0313V22.8367ZM17.8125 22.8367V25.1837H15.4102H13.0078V22.8367V20.4898H15.4102H17.8125V22.8367ZM23.6055 22.8245L23.5938 25.1633H21.2031H18.8086L18.7969 22.8245L18.7891 20.4898H21.1992H23.6133L23.6055 22.8245ZM29.4141 22.8367V25.1837H27.0117H24.6094V22.8367V20.4898H27.0117H29.4141V22.8367ZM32.5234 20.7429C32.4024 21.0735 31.0352 24.7265 30.8945 25.0898C30.8672 25.1714 30.832 25.1837 30.625 25.1837H30.3906V22.8367V20.4898H31.5039H32.6172L32.5234 20.7429ZM6.21094 27.8898V29.5755L5.05079 29.4775C4.41016 29.4245 3.87501 29.3714 3.86329 29.3551C3.84766 29.3388 3.76563 28.6735 3.67579 27.8775C3.58594 27.0816 3.50391 26.3796 3.49219 26.3143L3.46876 26.2041H4.83985H6.21094V27.8898ZM12.0313 28.1224V30.0408H11.918C11.8594 30.0408 10.8203 29.9592 9.61329 29.8571C8.40626 29.7551 7.37501 29.6735 7.32423 29.6735H7.22657V27.9388V26.2041H9.62891H12.0313V28.1224ZM17.8125 28.3673C17.8125 29.5551 17.8008 30.5306 17.7852 30.5306C17.6953 30.5347 13.0977 30.1551 13.0586 30.1388C13.0195 30.1265 13.0078 29.698 13.0078 28.1633V26.2041H15.4102H17.8125V28.3673ZM23.6055 28.6286L23.6133 31.0286L23.3789 31.0041C23.25 30.9918 22.2227 30.9061 21.0938 30.8163C19.9649 30.7265 18.9922 30.6408 18.9258 30.6327L18.8086 30.6122L18.8164 28.4204C18.8242 27.2122 18.8281 26.2204 18.8281 26.2122C18.8281 26.2082 19.9024 26.2082 21.2109 26.2122L23.5938 26.2245L23.6055 28.6286ZM29.4141 27.6327V29.0571L28.9883 30.1918C28.7578 30.8163 28.5508 31.3673 28.5352 31.4204C28.5156 31.4898 28.4922 31.5102 28.4453 31.4898C28.2734 31.4122 27.9961 31.3796 26.5625 31.2653C25.7149 31.1959 24.9258 31.1306 24.8164 31.1184L24.6094 31.0939V28.649V26.2041H27.0117H29.4141V27.6327ZM30.4688 26.2327C30.4688 26.2531 30.4492 26.2939 30.4297 26.3265C30.3984 26.3755 30.3906 26.3714 30.3906 26.2939C30.3906 26.2449 30.4102 26.2041 30.4297 26.2041C30.4531 26.2041 30.4688 26.2163 30.4688 26.2327ZM6.77344 45.4082C7.19923 45.6204 7.55079 46.0449 7.67579 46.5061C7.78126 46.8898 7.7461 47.4163 7.58594 47.7592C7.43751 48.0816 7.08594 48.449 6.78907 48.5918C5.76563 49.0775 4.59766 48.4327 4.40626 47.2694C4.28516 46.5388 4.67188 45.7633 5.32423 45.4286C5.75391 45.2082 6.35157 45.2 6.77344 45.4082ZM34.0039 45.4327C34.3164 45.5918 34.6563 45.9551 34.7891 46.2653C35.4297 47.7796 33.9531 49.2735 32.5117 48.5714C31.875 48.2653 31.4805 47.4694 31.5938 46.7429C31.7813 45.5714 32.9922 44.9102 34.0039 45.4327Z" fill="black"/>
<path d="M5.68363 46.1755C5.44925 46.2939 5.34378 46.4082 5.23831 46.6531C4.92191 47.3796 5.57425 48.1633 6.30863 47.9429C6.71878 47.8163 6.96488 47.4775 6.96488 47.0408C6.96878 46.5061 6.62894 46.1306 6.11331 46.0939C5.92191 46.0816 5.84378 46.0939 5.68363 46.1755Z" fill="black"/>
<path d="M32.9648 46.1388C32.7461 46.2204 32.5898 46.3551 32.4727 46.5633C32.3789 46.7224 32.3633 46.8 32.3633 47.0408C32.3672 47.3592 32.418 47.502 32.6211 47.7061C32.8086 47.8939 32.9922 47.9755 33.2617 47.9714C33.5508 47.9714 33.7617 47.8694 33.957 47.6286C34.543 46.9143 33.8164 45.8204 32.9648 46.1388Z" fill="black"/>
</svg>
