<svg width="20" height="20" viewBox="0 0 39 40" fill="#ffffff" xmlns="http://www.w3.org/2000/svg">
<path d="M4.25356 37.972C4.22995 39.056 3.34855 39.912 2.28221 39.892C1.21587 39.868 0.373822 38.972 0.393496 37.888C0.605976 27.68 10.5926 21.144 19.6741 21.144C28.9682 21.144 38.7423 27.68 38.9547 37.888C38.9744 38.972 38.1284 39.868 37.066 39.892C35.9997 39.912 35.1183 39.052 35.0947 37.972C34.9294 30.004 26.9614 25.068 19.6741 25.068C12.3554 25.068 4.41095 30.256 4.25356 37.972Z" fill="black"/>
<path d="M19.6741 19.72C23.9316 19.72 27.3942 16.2 27.3942 11.872C27.3942 7.548 23.9316 4.024 19.6741 4.024C15.4206 4.024 11.9579 7.544 11.9579 11.872C11.9579 16.2 15.4166 19.72 19.6741 19.72ZM19.6741 23.644C13.28 23.644 8.09787 18.376 8.09787 11.876C8.09787 5.376 13.28 0.108002 19.6741 0.108002C26.0682 0.108002 31.2543 5.376 31.2543 11.876C31.2504 18.376 26.0682 23.644 19.6741 23.644Z" fill="black"/>
</svg>
