<svg width="20" height="20" viewBox="0 0 47 47" fill="none" xmlns="http://www.w3.org/2000/svg">
<path d="M21.2333 4.9C12.232 4.9 4.89999 12.232 4.89999 21.2333C4.89999 30.2346 12.232 37.5667 21.2333 37.5667C25.1476 37.5667 28.7424 36.1767 31.5597 33.8693L41.3118 43.6215C41.4623 43.7782 41.6426 43.9034 41.8421 43.9896C42.0416 44.0758 42.2562 44.1214 42.4735 44.1236C42.6908 44.1258 42.9064 44.0846 43.1076 44.0025C43.3088 43.9204 43.4916 43.7989 43.6452 43.6452C43.7989 43.4916 43.9203 43.3088 44.0025 43.1076C44.0846 42.9064 44.1258 42.6909 44.1236 42.4736C44.1214 42.2563 44.0758 42.0416 43.9896 41.8421C43.9034 41.6426 43.7782 41.4624 43.6215 41.3119L33.8693 31.5597C36.1767 28.7424 37.5667 25.1476 37.5667 21.2333C37.5667 12.232 30.2346 4.9 21.2333 4.9ZM21.2333 8.16667C28.4692 8.16667 34.3 13.9975 34.3 21.2333C34.3 28.4692 28.4692 34.3 21.2333 34.3C13.9975 34.3 8.16666 28.4692 8.16666 21.2333C8.16666 13.9975 13.9975 8.16667 21.2333 8.16667Z" fill="white"/>
</svg>
