<svg width="211" height="53" viewBox="0 0 211 53" fill="none" xmlns="http://www.w3.org/2000/svg">
<path d="M126.93 3.32909C121.82 3.99159 116.973 6.47596 113.264 10.3681C109.967 13.7966 107.89 17.9206 107.066 22.6741C106.736 24.5291 106.753 28.5041 107.083 30.4916C108.731 40.2469 116.413 47.9485 126.188 49.6047C128.249 49.9525 131.941 49.9525 133.853 49.6213C137.397 48.9919 141.238 47.3522 143.909 45.315C147.634 42.4994 150.733 38.2097 152.118 33.9531C153.569 29.5475 153.667 24.4628 152.382 19.9413C151.821 17.9538 150.107 14.4757 148.837 12.7532C147.535 10.9644 145.524 8.94378 143.744 7.63534C142.029 6.34346 138.551 4.62096 136.573 4.05784C133.606 3.22971 129.88 2.94815 126.93 3.32909ZM134.513 5.78034C137.2 6.39315 139.342 7.32065 141.683 8.86096C143.233 9.87127 144.008 10.5669 143.81 10.7656C143.727 10.8319 143.381 10.981 143.035 11.0969C142.326 11.3122 141.42 12.1569 141.007 12.9353C140.595 13.7469 140.529 15.0388 140.843 16.165C141.007 16.695 141.634 18.0366 142.244 19.1297C143.876 22.0116 144.106 22.7072 144.189 25.0922C144.288 27.6594 144.123 28.4047 142.227 34.2513C141.123 37.6466 140.645 38.9219 140.48 38.8888C140.233 38.8391 132.815 17.1753 132.897 16.7281C132.947 16.546 133.276 16.4631 134.265 16.3969L135.584 16.3141V15.6019V14.8731H129.485H123.386V15.6019V16.3141L124.754 16.3638C125.941 16.3969 126.139 16.4466 126.336 16.7778C126.468 16.9766 127.243 19.0138 128.084 21.316L129.6 25.4897L127.309 32.4128C125.875 36.7356 124.935 39.336 124.803 39.336C124.605 39.336 117.039 17.3575 117.039 16.7944C117.039 16.5128 117.468 16.4135 118.852 16.3638L119.924 16.3141L119.973 15.751C120.006 15.4528 119.957 15.1216 119.858 15.0222C119.726 14.8897 118.523 14.8566 116.132 14.8897C113.198 14.9228 112.588 14.8897 112.588 14.7075C112.588 14.31 114.698 11.8091 115.968 10.6994C119.314 7.76784 123.006 6.09502 127.672 5.3994C128.858 5.21721 133.144 5.46565 134.513 5.78034ZM150.057 19.8585C153.025 28.9844 149.662 38.7894 141.733 44.1888C140.859 44.785 140.612 44.8347 140.612 44.4372C140.612 44.2881 142.062 40.015 143.843 34.9635C145.623 29.8953 147.304 25.0094 147.568 24.0985C148.063 22.376 148.689 19.0635 148.689 18.1525C148.689 16.7281 149.283 17.4735 150.057 19.8585ZM115.869 31.8497C118.506 39.1041 120.666 45.1328 120.666 45.2156C120.666 45.5303 120.221 45.3647 118.935 44.5697C116.429 43.0128 113.907 40.545 112.341 38.1103C108.945 32.8103 108.022 26.1191 109.885 20.1731C110.462 18.3347 110.577 18.1194 110.857 18.401C110.973 18.5335 113.231 24.5788 115.869 31.8497ZM133.886 37.2656C136.573 44.6691 137.117 46.3088 136.952 46.491C136.672 46.756 134.644 47.286 132.864 47.551C131.331 47.7663 127.161 47.6669 125.941 47.3688C124.111 46.9216 123.963 46.8553 123.963 46.5406C123.963 46.3088 129.534 29.9947 130.144 28.4378C130.21 28.2722 130.342 28.1728 130.441 28.206C130.523 28.2225 132.073 32.3135 133.886 37.2656Z" fill="white"/>
<path d="M16.8965 4.14065C14.7041 4.28971 12.5776 4.7369 11.127 5.36627C8.83567 6.39315 6.70919 8.43034 5.62122 10.6663C4.18708 13.5813 3.9563 15.6847 3.9563 26.5C3.9563 37.3485 4.1706 39.4353 5.63771 42.4C6.61028 44.3875 8.57192 46.3585 10.55 47.3356C13.5172 48.8097 15.5778 49.025 26.375 49.025C37.1723 49.025 39.2329 48.8097 42.2001 47.3356C44.1782 46.375 46.1233 44.3875 47.1124 42.4C48.6125 39.3194 48.8762 36.5038 48.7444 24.3469C48.6619 15.5025 48.5795 14.5253 47.7223 12.041C46.3871 8.21502 43.2715 5.5319 39.0845 4.57127C38.4251 4.42221 36.7932 4.22346 35.4744 4.14065C32.7051 3.95846 19.8637 3.95846 16.8965 4.14065ZM37.7822 8.66221C41.2275 9.47377 43.3375 11.6269 44.1452 15.1216C44.3925 16.165 44.4254 17.5231 44.4254 26.5C44.4254 35.5763 44.3925 36.8185 44.1452 37.9281C43.3375 41.4228 41.2275 43.5428 37.7493 44.3544C36.6448 44.6028 35.425 44.636 26.375 44.636C17.1768 44.636 16.1218 44.6028 14.9679 44.3378C11.5061 43.5263 9.41263 41.4063 8.62138 37.9281C8.35763 36.8185 8.32466 35.5763 8.32466 26.6656C8.32466 19.1628 8.37411 16.3638 8.53896 15.5191C9.34669 11.2128 11.9347 8.91065 16.5009 8.4469C17.2592 8.38065 22.1056 8.33096 27.2817 8.36409C35.1942 8.39721 36.8591 8.4469 37.7822 8.66221Z" fill="white"/>
<path d="M37.3207 12.0907C36.7767 12.306 35.7876 13.5813 35.6723 14.2107C35.3426 15.9166 36.9251 17.4735 38.6559 17.1588C39.0516 17.076 39.5296 16.7779 40.0736 16.2479C40.8813 15.4694 40.8813 15.4529 40.8813 14.426C40.8813 13.3991 40.8648 13.3494 40.156 12.6538C39.4801 11.9748 39.3812 11.9251 38.557 11.9416C38.0625 11.9416 37.5185 12.0079 37.3207 12.0907Z" fill="white"/>
<path d="M23.6551 15.3369C22.3034 15.6681 20.2099 16.7281 19.1384 17.6059C14.292 21.6637 13.5832 28.8187 17.5394 33.804C18.9076 35.5431 21.3473 37.0834 23.6551 37.6797C25.1057 38.044 27.8257 38.0109 29.3422 37.5803C34.3864 36.1725 37.7492 31.7503 37.7492 26.5165C37.7492 24.529 37.436 23.1709 36.5624 21.3656C36.0019 20.2062 35.6392 19.6928 34.3864 18.4506C33.1336 17.2084 32.6061 16.8109 31.4522 16.2478C30.6774 15.8669 29.54 15.4528 28.9136 15.3203C27.4795 15.0222 24.9409 15.0222 23.6551 15.3369ZM29.5565 19.759C31.139 20.5375 32.3094 21.73 33.1006 23.3365C33.6941 24.5456 33.7106 24.6119 33.7106 26.5C33.7106 28.3881 33.6941 28.4378 33.0842 29.6965C32.2764 31.3528 31.2049 32.4294 29.5565 33.2409C28.3037 33.8537 28.2542 33.8703 26.3915 33.8703C24.5288 33.8703 24.4464 33.8537 23.2265 33.274C21.5946 32.479 20.4242 31.3031 19.6329 29.6634C19.056 28.4378 19.0395 28.355 19.0395 26.4834C19.0395 24.6119 19.056 24.5622 19.6659 23.32C20.622 21.349 22.0396 20.0903 24.1496 19.3284C24.7925 19.0965 25.3365 19.0469 26.6553 19.0965C28.2048 19.1462 28.4521 19.2125 29.5565 19.759Z" fill="white"/>
<path d="M161.926 5.71411C161.629 5.84661 161.234 6.19442 161.052 6.49254C160.723 7.0391 160.723 7.27098 160.723 27.2288C160.723 47.17 160.723 47.4185 161.052 47.9485C161.728 49.0582 161.366 49.025 173.069 49.025H183.636L183.603 40.6113L183.554 32.2141L180.883 32.1644L178.196 32.1313V28.8188V25.5063L180.883 25.4732L183.554 25.4235L183.652 22.1938C183.768 18.7488 183.949 17.755 184.74 16.1816C185.614 14.426 187.345 13.0844 189.504 12.4882C190.246 12.2894 191.12 12.2232 193.197 12.2397C194.697 12.2563 196.181 12.3225 196.494 12.3888L197.071 12.5213V15.3204V18.136L194.845 18.2354C192.406 18.3347 191.911 18.4838 191.169 19.3782C190.658 19.991 190.526 20.9185 190.592 23.5188L190.642 25.4235L193.691 25.4732C195.521 25.4897 196.774 25.5891 196.823 25.6885C196.922 25.8375 196.263 31.4854 196.082 31.916C196.032 32.0816 195.373 32.1313 193.543 32.1313C192.191 32.1313 190.971 32.181 190.823 32.2307C190.592 32.3135 190.559 33.1913 190.559 40.4125C190.559 44.8679 190.609 48.611 190.658 48.76C190.741 48.9919 191.417 49.025 196.576 49.025C202.329 49.025 202.379 49.025 202.939 48.6441C204.159 47.8325 204.077 49.4225 204.077 27.2785C204.077 5.78036 204.126 6.84035 203.17 5.96254L202.725 5.54848L182.597 5.51536C165.569 5.48223 162.371 5.51536 161.926 5.71411Z" fill="white"/>
<path d="M85.6363 7.10527C83.0813 7.83402 80.6745 9.83808 79.5701 12.0906C78.6635 13.9456 78.4327 15.0221 78.4986 17.1421L78.5481 18.964L77.1963 18.9309C74.6742 18.8646 70.8334 17.8378 67.8332 16.4134C64.5034 14.84 62.1296 13.1009 59.5581 10.3681C58.7338 9.49027 57.992 8.77808 57.8931 8.77808C57.7118 8.77808 57.1513 10.1362 56.8546 11.2625C56.7557 11.66 56.6733 12.7034 56.6733 13.5812C56.6898 16.4134 57.7118 18.7653 59.8218 20.7693C61.0581 21.9287 60.9922 22.1937 59.5581 21.8625C59.0306 21.7465 58.2063 21.4815 57.7118 21.2662C57.2338 21.0509 56.7722 20.8687 56.6898 20.8687C56.2612 20.8687 56.8217 23.6181 57.5305 25.0756C58.6349 27.3115 60.8933 29.3818 63.0033 30.0609C64.8001 30.6571 64.421 30.9884 62.0307 30.9387C61.0911 30.9221 60.2834 30.9553 60.2339 31.0215C60.168 31.0878 60.3658 31.6178 60.646 32.214C61.3054 33.539 62.8714 35.2615 64.1902 36.1393C65.1957 36.7853 67.4046 37.5968 68.2124 37.5968C68.4596 37.5968 68.7728 37.6796 68.9047 37.7625C69.2838 38.0275 68.4926 38.5906 66.1848 39.75C63.1517 41.2737 59.8713 41.9859 56.5579 41.87C55.5029 41.8368 54.9919 41.8865 54.9424 42.0025C54.8435 42.2675 58.4206 44.0728 60.4153 44.7684C64.0253 46.0106 67.1244 46.4743 71.0477 46.3253C76.6688 46.11 81.268 44.669 85.5869 41.754C91.1751 37.9778 95.3621 32.0815 97.1919 25.4068C97.8348 23.0218 98.0985 21.3159 98.1974 18.7653L98.2963 16.3968L99.1865 15.7012C100.093 15.0056 101.939 13.0843 102.582 12.19C102.912 11.7262 102.912 11.7096 102.599 11.8256C100.884 12.4881 97.637 13.1506 97.7688 12.8028C97.8018 12.7034 98.2634 12.2728 98.7744 11.8587C99.7635 11.0471 101.033 9.40746 101.461 8.38058C101.593 8.04933 101.692 7.78433 101.659 7.78433C101.61 7.78433 101.049 8.03277 100.373 8.34746C98.9722 8.99339 96.5985 9.77183 96.0215 9.77183C95.8072 9.77183 95.1313 9.39089 94.5049 8.91058C93.2686 7.98308 92.0817 7.37027 90.7795 7.02246C89.5926 6.70777 86.8562 6.74089 85.6363 7.10527Z" fill="white"/>
</svg>
